<svg width="48" height="20" viewBox="0 0 48 20" fill="none" xmlns="http://www.w3.org/2000/svg">
<g id="top-down-bike-racing-monsterbraingames 1" clip-path="url(#clip0_701_79693)">
<g id="layer1">
<g id="g3237">
<path id="rect3065" d="M12.7686 13.5364L13.6435 16.244C13.7091 16.4469 13.9268 16.5582 14.1297 16.4927C14.3327 16.4271 14.444 16.2094 14.3784 16.0065L13.5035 13.2989C13.4379 13.096 13.2202 12.9847 13.0173 13.0502C12.8144 13.1158 12.703 13.3335 12.7686 13.5364Z" fill="#333333" stroke="#2E3436" stroke-width="0.5" stroke-linecap="square"/>
<path id="rect3057" d="M5.62225 8.13248C4.82646 8.13248 4.18134 8.71614 4.18134 9.43612C4.18134 10.1561 4.82646 10.7398 5.62225 10.7398L10.2535 10.7398C11.0493 10.7398 11.6944 10.1561 11.6944 9.43612C11.6944 8.71614 11.0493 8.13248 10.2535 8.13248L5.62225 8.13248Z" fill="#2E3436" stroke="#2E3436" stroke-width="0.5" stroke-linecap="square"/>
<path id="path3075" d="M14.2678 13.1755L14.7481 12.8667L15.0912 11.5974L15.9145 10.7741L16.3262 10.3967L16.635 9.9164L16.5664 8.88721L16.3262 8.50984L15.7773 8.13247L15.1255 7.37774L14.8854 6.0398L14.3022 6.0741L10.8373 6.31425L8.53877 7.00038L6.92642 9.36748L6.92642 9.91639L8.74471 12.3179L10.9746 13.004L14.2678 13.1755Z" fill="#1A1A1A" stroke="black" stroke-width="0.5"/>
<path id="path3077" d="M11.695 12.7815C11.695 12.7815 11.026 11.598 11.0088 9.96845C10.9917 8.33884 11.6778 6.332 11.6778 6.332L9.72231 6.57214L8.09271 7.49841L6.9263 9.59111L8.5559 12.0097L9.89384 12.8502L11.695 12.7815Z" fill="url(#paint0_linear_701_79693)"/>
<path id="path3033" d="M10.5796 14.1305C10.5796 14.1305 8.76136 13.9589 8.17817 13.3757C7.59496 12.7925 6.05124 9.55059 6.05124 9.55059L7.02896 9.46484C7.02896 9.46484 8.34974 11.8834 9.12166 12.1578C9.89355 12.4323 10.7513 12.6724 11.283 12.7239C11.8147 12.7753 14.3705 12.8954 14.3705 12.8954L13.9759 13.9246L11.8317 13.8388L10.8197 14.0961L10.5796 14.1305Z" fill="#F19305" stroke="black" stroke-width="0.5"/>
<path id="path3035" d="M11.0864 12.8685L11.0521 13.5546C11.0521 13.5546 10.8891 14.8411 11.1464 15.45C11.4037 16.059 12.5187 17.0109 12.5187 17.0109L12.836 16.9251C12.836 16.9251 13.1877 15.6901 12.9304 15.0469C12.6731 14.4037 11.9698 13.8376 11.9698 13.8376L11.6868 13.8033L11.7125 13.0057C11.7125 13.0057 11.6267 12.8942 11.3952 12.8428C11.1636 12.7913 11.0864 12.8685 11.0864 12.8685Z" fill="#0E0E0E" stroke="black" stroke-width="0.5"/>
<path id="path3037" d="M14.7759 13.1306C14.7759 13.1306 16.4012 13.7128 17.2745 13.7856C18.1478 13.8584 20.986 13.8341 20.986 13.8341L22.6597 12.7183L20.8647 12.3301C20.8647 12.3301 24.4063 10.6079 24.4549 9.5404C24.476 9.07744 16.6195 9.53822 16.6195 9.53822C16.6195 9.53822 16.5225 10.5593 16.1343 10.6563C15.7462 10.7534 15.7462 10.7776 15.7462 10.7776C15.7462 10.7776 14.9942 11.5539 14.9214 11.9905C14.8486 12.4272 14.7759 13.1306 14.7759 13.1306Z" fill="#D28006" stroke="black" stroke-width="0.5"/>
<path id="path3039" d="M22.5381 12.6701C22.5381 12.6701 22.9748 12.1122 23.7025 12.1122C24.4303 12.1122 25.4734 11.7968 25.4734 11.7968C25.4734 11.7968 26.2982 12.4033 27.2443 12.3305C28.1904 12.2577 29.5488 11.1661 29.5488 11.1661L29.8156 9.58938L24.3333 9.49236C24.3333 9.49236 23.7996 10.681 23.2659 10.8993C22.7323 11.1176 20.8401 12.3063 20.8401 12.3063L21.9803 12.5974L22.5381 12.6701Z" fill="#1A181B" stroke="black" stroke-width="0.5"/>
<path id="rect3059" d="M33.4952 10.1633C32.9367 10.0946 32.4283 10.4917 32.3596 11.0501C32.2909 11.6086 32.688 12.117 33.2465 12.1857L36.6413 12.6032C37.1998 12.6719 37.7082 12.2748 37.7769 11.7164C37.8456 11.1579 37.4485 10.6495 36.89 10.5808L33.4952 10.1633Z" fill="#888A85" stroke="#2E3436" stroke-width="0.5" stroke-linecap="square"/>
<path id="path3041" d="M29.8643 9.61361L37.2873 9.61361C37.2873 9.61361 36.7536 10.0988 36.4382 10.3171C36.1229 10.5354 35.8075 11.0448 35.1768 11.1419C34.5461 11.2389 33.1148 12.4761 32.2901 12.8399C31.4653 13.2038 30.3737 13.4464 29.1123 13.1796C27.8509 12.9127 27.8509 12.2577 27.8509 12.2577L29.2093 11.4087L29.743 10.8023L29.8643 9.61361Z" fill="#F19305" stroke="black" stroke-width="0.5"/>
<path id="rect3067" d="M12.7352 5.57879L13.6101 2.87126C13.6757 2.66832 13.8934 2.55698 14.0963 2.62255C14.2993 2.68813 14.4106 2.9058 14.345 3.10874L13.4701 5.81627C13.4045 6.0192 13.1869 6.13055 12.9839 6.06497C12.781 5.9994 12.6696 5.78173 12.7352 5.57879Z" fill="#333333" stroke="#2E3436" stroke-width="0.5" stroke-linecap="square"/>
<path id="path3043" d="M10.5796 4.92287C10.5796 4.92287 8.76136 5.0944 8.17817 5.67761C7.59496 6.26081 6.05124 9.51987 6.05124 9.51987L7.08043 9.46841C7.08043 9.46841 8.34976 7.16991 9.12165 6.8955C9.89353 6.62105 10.7512 6.3809 11.2829 6.32945C11.8147 6.27799 14.3704 6.15791 14.3704 6.15791L13.9759 5.12873L11.8317 5.21449L10.8197 4.9572L10.5796 4.92287Z" fill="#F19305" stroke="black" stroke-width="0.5"/>
<path id="path3045" d="M11.0864 6.18351L11.0521 5.4974C11.0521 5.4974 10.8891 4.21091 11.1464 3.60194C11.4037 2.99302 12.5187 2.04108 12.5187 2.04108L12.836 2.12685C12.836 2.12685 13.1877 3.36188 12.9304 4.00505C12.6731 4.64829 11.9698 5.21435 11.9698 5.21435L11.6868 5.24866L11.7125 6.04628C11.7125 6.04628 11.6267 6.15777 11.3952 6.20922C11.1636 6.26068 11.0864 6.18351 11.0864 6.18351Z" fill="#0E0E0E" stroke="black" stroke-width="0.5"/>
<path id="path3047" d="M14.7759 5.92269C14.7759 5.92269 16.4012 5.34049 17.2745 5.26772C18.1478 5.19495 20.986 5.21921 20.986 5.21921L22.6597 6.33507L20.8647 6.72321C20.8647 6.72321 24.5034 8.00889 24.5519 9.3673C24.5685 9.83045 16.6024 9.58367 16.6024 9.58367C16.6024 9.58367 16.5225 8.49401 16.1344 8.39697C15.7462 8.29994 15.7462 8.27569 15.7462 8.27569C15.7462 8.27569 14.9942 7.49943 14.9215 7.06278C14.8487 6.62613 14.7759 5.92269 14.7759 5.92269Z" fill="#D28006" stroke="black" stroke-width="0.5"/>
<path id="path3049" d="M22.5381 6.3832C22.5381 6.3832 22.9748 6.94113 23.7025 6.94113C24.4303 6.94113 25.4734 7.2565 25.4734 7.2565C25.4734 7.2565 26.2982 6.65004 27.2443 6.72281C28.1904 6.79559 29.5488 7.8872 29.5488 7.8872L29.8156 9.46396L24.3454 9.42757C24.3454 9.42757 23.7996 8.37233 23.2659 8.15402C22.7322 7.9357 20.8401 6.74707 20.8401 6.74707L21.9803 6.45596L22.5381 6.3832Z" fill="#1A181B" stroke="black" stroke-width="0.5"/>
<path id="rect3093" d="M33.4941 8.89813C32.9356 8.96681 32.4272 8.56975 32.3585 8.01127C32.2898 7.45278 32.6869 6.94437 33.2454 6.87569L36.6402 6.45819C37.1987 6.3895 37.7071 6.78656 37.7758 7.34505C37.8445 7.90353 37.4474 8.41194 36.889 8.48063L33.4941 8.89813Z" fill="#888A85" stroke="#2E3436" stroke-width="0.5" stroke-linecap="square"/>
<path id="path3051" d="M29.8643 9.65845L37.2873 9.60993C37.2873 9.60993 36.7536 8.95497 36.4382 8.73664C36.1229 8.51832 35.8075 8.0089 35.1768 7.91187C34.5461 7.81483 33.1148 6.57767 32.2901 6.2138C31.4653 5.84992 30.3737 5.60734 29.1123 5.87418C27.8509 6.14103 27.8509 6.79599 27.8509 6.79599L29.2093 7.64503L29.743 8.25148L29.8643 9.65845Z" fill="#F19305" stroke="black" stroke-width="0.5"/>
<path id="path3101" d="M28.5303 6.74999C29.2732 6.73181 30.0028 7.06534 30.6893 7.06534C31.9237 7.06534 32.9962 8.27825 34.2552 8.27825C34.9666 8.27825 35.1871 9.12728 35.7107 9.12728C35.8641 9.12728 36.3007 9.27283 36.1473 9.27283C35.8944 9.27283 29.8955 4.62618 28.5303 6.74999Z" fill="#F19305"/>
<path id="path3099" d="M18.5484 11.999C18.8275 11.9245 19.0785 11.7585 19.361 11.6716C19.8158 11.5316 20.2366 11.2525 20.6952 11.1379C22.7056 10.6353 19.678 12.0442 19.5066 12.3872C19.5022 12.3959 21.0712 13.0778 21.0712 13.0543C21.0712 12.9121 20.3104 13.1785 20.2465 13.1998C19.7137 13.3774 19.0246 13.2765 18.4878 13.1998C18.1413 13.1503 15.5162 13.3541 15.5162 12.9694C15.5162 12.1903 18.2691 12.744 18.5484 11.999Z" fill="#F19305"/>
<path id="path3097" d="M18.5484 7.21186C18.8275 7.28643 19.0785 7.4524 19.361 7.53934C19.8158 7.67928 20.2366 7.95835 20.6952 8.07301C22.7056 8.57561 19.678 7.16666 19.5066 6.82372C19.5022 6.81502 21.0712 6.13306 21.0712 6.15662C21.0712 6.29876 20.3104 6.03241 20.2465 6.01108C19.7137 5.83348 19.0246 5.93438 18.4878 6.01108C18.1413 6.06058 15.5162 5.85677 15.5162 6.24152C15.5162 7.02063 18.2691 6.46695 18.5484 7.21186Z" fill="#F19305"/>
<path id="rect3063" d="M15.3329 14.9557C14.7702 14.9557 14.3141 15.3658 14.3141 15.8717C14.3141 16.3775 14.7702 16.7876 15.3329 16.7876L21.1479 16.7876C21.7106 16.7876 22.1667 16.3775 22.1667 15.8717C22.1667 15.3658 21.7106 14.9557 21.1479 14.9557L15.3329 14.9557Z" fill="#333333" stroke="#2E3436" stroke-width="0.5" stroke-linecap="square"/>
<path id="path3103" d="M28.6023 12.3808C29.3452 12.399 30.0748 12.0654 30.7613 12.0654C31.9957 12.0654 33.0682 10.8525 34.3272 10.8525C35.0386 10.8525 35.2591 10.0035 35.7826 10.0035C35.9361 10.0035 36.3727 9.85794 36.2193 9.85794C35.9664 9.85794 29.9675 14.5046 28.6023 12.3808Z" fill="#F19305"/>
<path id="rect3107" d="M26.3448 13.2808L26.5276 13.2754C27.6946 13.2414 28.6106 12.2679 28.5736 11.101L28.4717 7.88988C28.4347 6.72299 27.4586 5.80461 26.2917 5.83862L26.1089 5.84395C24.9419 5.87796 24.0259 6.85149 24.0629 8.01837L24.1648 11.2295C24.2018 12.3964 25.1778 13.3148 26.3448 13.2808Z" fill="#1A1A1A" stroke="#2E3436" stroke-width="0.5" stroke-linecap="square"/>
<path id="path3053" d="M21.3696 6.96327C23.2075 6.96327 24.6973 8.0845 24.6973 9.46757C24.6973 10.8508 23.2075 11.9719 21.3696 11.9719C19.5317 11.9719 18.0419 10.8507 18.0419 9.46757C18.0419 8.0844 19.5317 6.96327 21.3696 6.96327Z" fill="#EDD400" stroke="#2E3436" stroke-width="0.5" stroke-linecap="square"/>
<path id="rect3069" d="M21.6914 16.198L21.7242 16.2283C22.1374 16.6103 22.782 16.585 23.164 16.1719L25.9635 13.1438C26.3454 12.7306 26.3202 12.086 25.907 11.7041L25.8742 11.6737C25.461 11.2917 24.8164 11.317 24.4344 11.7302L21.6349 14.7582C21.2529 15.1714 21.2782 15.816 21.6914 16.198Z" fill="#333333" stroke="#2E3436" stroke-width="0.5" stroke-linecap="square"/>
<path id="rect3071" d="M15.284 4.35435C14.7213 4.35435 14.2651 3.94427 14.2651 3.43841C14.2651 2.93255 14.7213 2.52248 15.284 2.52248L21.099 2.52248C21.6617 2.52248 22.1178 2.93255 22.1178 3.43841C22.1178 3.94427 21.6617 4.35435 21.099 4.35435L15.284 4.35435Z" fill="#333333" stroke="#2E3436" stroke-width="0.5" stroke-linecap="square"/>
<path id="rect3073" d="M21.6409 3.11234L21.6738 3.08201C22.0869 2.70002 22.7315 2.72531 23.1135 3.13848L25.913 6.16655C26.295 6.57972 26.2697 7.22432 25.8565 7.6063L25.8237 7.63664C25.4105 8.01862 24.7659 7.99334 24.384 7.58017L21.5845 4.5521C21.2025 4.13893 21.2278 3.49433 21.6409 3.11234Z" fill="#333333" stroke="#2E3436" stroke-width="0.5" stroke-linecap="square"/>
<path id="path3055" d="M20.3225 11.3226C20.3225 11.3226 19.0875 10.7222 19.1218 9.45291C19.1659 7.82168 20.1853 7.46318 20.1853 7.46318L21.609 7.29165C21.609 7.29165 20.2539 7.77194 20.3225 9.22989C20.3911 10.6879 21.5918 11.3912 21.5918 11.3912L20.3225 11.3226Z" fill="#2E3436" stroke="black" stroke-width="0.5"/>
<path id="path3087" d="M13.5819 12.9187C13.5819 12.9187 14.2337 10.9117 14.3023 10.8604C14.3709 10.8089 14.6796 10.8776 14.7483 10.5688C14.8169 10.26 14.491 10.0542 14.491 9.7626C14.491 9.471 14.834 9.12793 14.7826 8.76773C14.7311 8.4075 14.3709 8.35604 14.3709 8.35604L13.7019 6.17762L13.1187 6.2634L13.9078 8.3561C13.9078 8.3561 13.7705 8.69916 13.7705 9.07653C13.7705 9.45389 14.0107 9.67689 14.0107 9.67689C14.0107 9.67689 13.822 9.96849 13.7534 10.2258C13.6848 10.4831 13.9249 10.8433 13.9249 10.8433L13.0673 12.833L13.5819 12.9187Z" fill="#333333" stroke="black" stroke-width="0.5"/>
<path id="path3089" d="M12.7666 9.85804C13.1596 9.96536 13.3436 10.545 13.1776 11.1527C13.0116 11.7605 12.5585 12.1661 12.1656 12.0588C11.7726 11.9515 11.5886 11.3718 11.7546 10.7641C11.9205 10.1564 12.3736 9.75072 12.7666 9.85804Z" fill="#333333" stroke="black" stroke-width="0.5" stroke-linecap="square"/>
<path id="path3091" d="M12.7666 9.18714C13.1596 9.07982 13.3436 8.50016 13.1776 7.89243C13.0116 7.28471 12.5585 6.87906 12.1656 6.98638C11.7726 7.0937 11.5886 7.67334 11.7546 8.28107C11.9205 8.88879 12.3736 9.29446 12.7666 9.18714Z" fill="#333333" stroke="black" stroke-width="0.5" stroke-linecap="square"/>
</g>
</g>
</g>
<defs>
<linearGradient id="paint0_linear_701_79693" x1="10.3568" y1="9.85407" x2="4.85096" y2="9.63671" gradientUnits="userSpaceOnUse">
<stop stop-color="#999999"/>
<stop offset="1" stop-color="#999999" stop-opacity="0"/>
</linearGradient>
<clipPath id="clip0_701_79693">
<rect width="19.1999" height="48" fill="white" transform="translate(0 19.1992) rotate(-90)"/>
</clipPath>
</defs>
</svg>
