<svg width="28" height="16" viewBox="0 0 28 16" fill="none" xmlns="http://www.w3.org/2000/svg">
<g id="indian-rupee-notes-color-icon 1" clip-path="url(#clip0_701_79631)">
<rect width="28" height="16" fill="white"/>
<path id="Vector" fill-rule="evenodd" clip-rule="evenodd" d="M3.04688 0H28.0003V13.6431L26.2355 13.6509L26.3587 3.63951L26.3634 3.51999C26.3645 2.63571 25.6372 1.91777 24.7397 1.91674L3.04688 1.90834V0Z" fill="#F19305"/>
<path id="Vector_2" fill-rule="evenodd" clip-rule="evenodd" d="M0 3.23651H24.9538V16H0V3.23651Z" fill="#F19305"/>
<path id="Vector_3" fill-rule="evenodd" clip-rule="evenodd" d="M20.8994 5.2207C20.8862 6.17013 21.7354 7.02892 22.7349 7.04072V12.0907C21.682 12.0777 20.8106 12.9144 20.7986 14.0455H4.1968C4.21004 13.0081 3.36063 12.1493 2.36133 12.1375V7.0875C3.41816 7.0993 4.29032 6.26308 4.3023 5.2207H20.8994Z" fill="white"/>
<path id="Vector_4" fill-rule="evenodd" clip-rule="evenodd" d="M9.06593 7.84037C10.0896 5.9455 12.4781 5.22729 14.4012 6.23588C16.3243 7.24436 17.0533 9.59788 16.0296 11.4927C15.0061 13.3875 12.6174 14.1058 10.6944 13.0972C8.77122 12.0885 8.04229 9.73518 9.06593 7.84037Z" fill="#F19305"/>
<path id="Vector_5" fill-rule="evenodd" clip-rule="evenodd" d="M11.1717 7.44727H13.9264C13.95 7.44727 13.9693 7.46677 13.9693 7.4907V7.90431C13.9694 7.91566 13.965 7.9266 13.9569 7.93472C13.9489 7.94285 13.9379 7.94751 13.9264 7.94768H13.066C13.2016 8.10314 13.2985 8.29038 13.3425 8.49616H13.9264C13.95 8.49616 13.9693 8.51561 13.9693 8.53954V8.9532C13.9694 8.96456 13.965 8.9755 13.9569 8.98364C13.9489 8.99178 13.9379 8.99645 13.9264 8.99663H13.3425C13.2898 9.24309 13.161 9.46321 12.9808 9.63359C12.7448 9.85672 12.4198 9.99515 12.0627 9.99515V9.99655H12.023L13.5681 11.7326C13.6099 11.7796 13.5367 11.884 13.5039 11.8841L12.7895 11.8881L11.1401 10.0349C11.1336 10.0274 11.1291 10.0185 11.1271 10.0089C11.1251 9.99928 11.1257 9.98933 11.1288 9.98V9.30123L12.0627 9.30129V9.30258C12.2305 9.30258 12.3828 9.23798 12.493 9.13393C12.5356 9.09381 12.5717 9.04751 12.6001 8.99663H11.1717C11.1602 8.99643 11.1492 8.99175 11.1412 8.98362C11.1332 8.97548 11.1287 8.96455 11.1289 8.9532V8.53954C11.1289 8.51561 11.1482 8.49616 11.1717 8.49616H12.6001C12.5717 8.44528 12.5356 8.39899 12.493 8.35892C12.3828 8.25471 12.2305 8.19016 12.0627 8.19016V8.19145L11.1288 8.1915V7.4907C11.1288 7.46672 11.1481 7.44727 11.1717 7.44727Z" fill="white"/>
</g>
<defs>
<clipPath id="clip0_701_79631">
<rect width="28" height="16" fill="white"/>
</clipPath>
</defs>
</svg>
