<svg width="55" height="54" viewBox="0 0 55 54" fill="none" xmlns="http://www.w3.org/2000/svg">
<g id="vuesax/bold/tick-circle">
<g id="tick-circle">
<path id="Vector" d="M27.6618 4.61877C15.3299 4.61877 5.28088 14.6678 5.28088 26.9997C5.28088 39.3316 15.3299 49.3807 27.6618 49.3807C39.9937 49.3807 50.0428 39.3316 50.0428 26.9997C50.0428 14.6678 39.9937 4.61877 27.6618 4.61877ZM38.3599 21.8521L25.6699 34.5421C25.3566 34.8554 24.9314 35.0345 24.4837 35.0345C24.0361 35.0345 23.6109 34.8554 23.2975 34.5421L16.9637 28.2083C16.3147 27.5592 16.3147 26.485 16.9637 25.8359C17.6128 25.1869 18.6871 25.1869 19.3361 25.8359L24.4837 30.9835L35.9875 19.4797C36.6366 18.8307 37.7109 18.8307 38.3599 19.4797C39.009 20.1288 39.009 21.1807 38.3599 21.8521Z" fill="#098041"/>
</g>
</g>
</svg>
