<svg width="20" height="20" viewBox="0 0 20 20" fill="none" xmlns="http://www.w3.org/2000/svg">
<path id="Vector" d="M19.9994 14.956V17.956C20.0005 18.2345 19.9435 18.5102 19.8319 18.7653C19.7203 19.0205 19.5567 19.2496 19.3515 19.4379C19.1462 19.6261 18.904 19.7695 18.6401 19.8587C18.3763 19.9479 18.0968 19.9811 17.8194 19.956C14.7422 19.6216 11.7864 18.5701 9.18938 16.886C6.77321 15.3506 4.72472 13.3022 3.18938 10.886C1.49936 8.27719 0.447627 5.30698 0.119384 2.21599C0.0943943 1.93945 0.127259 1.66075 0.215884 1.39761C0.30451 1.13447 0.446955 0.892675 0.63415 0.687607C0.821345 0.482539 1.04919 0.318695 1.30317 0.206508C1.55716 0.0943202 1.83172 0.0362471 2.10938 0.0359856H5.10938C5.59469 0.0312092 6.06518 0.203064 6.43315 0.519518C6.80112 0.835972 7.04146 1.27543 7.10938 1.75599C7.23601 2.71605 7.47083 3.65871 7.80938 4.56599C7.94393 4.92391 7.97305 5.3129 7.89329 5.68687C7.81353 6.06083 7.62825 6.4041 7.35938 6.67599L6.08938 7.94599C7.51294 10.4495 9.58584 12.5224 12.0894 13.946L13.3594 12.676C13.6313 12.4071 13.9745 12.2218 14.3485 12.1421C14.7225 12.0623 15.1115 12.0914 15.4694 12.226C16.3767 12.5645 17.3193 12.7994 18.2794 12.926C18.7652 12.9945 19.2088 13.2392 19.5259 13.6135C19.843 13.9878 20.0116 14.4656 19.9994 14.956Z" fill="white"/>
</svg>
