<svg width="25" height="24" viewBox="0 0 25 24" fill="none" xmlns="http://www.w3.org/2000/svg">
<g id="XMLID_1_">
<path id="XMLID_5_" d="M12.7587 23.9805H12.5852C12.2384 23.8914 12.0181 23.5867 12.0181 23.2399V11.9852H0.763369C0.416494 11.9852 0.107119 11.7227 0.0227437 11.418C-0.0663188 11.0711 0.111806 10.7196 0.458681 10.5883L22.9681 0.0742412C23.2727 -0.0570088 23.5774 -0.0148213 23.7977 0.205491C24.0181 0.425804 24.0602 0.772679 23.929 1.03518L13.4571 23.5446C13.3259 23.8024 13.0634 23.9805 12.7587 23.9805ZM4.16649 10.4992H12.8056C13.1993 10.4992 13.5462 10.8461 13.5462 11.2399V19.8321L21.7446 2.25393L4.16649 10.4992Z" fill="black"/>
</g>
</svg>
